<mxfile host="app.diagrams.net" agent="Mozilla/5.0 (Macintosh; Intel Mac OS X 10.15; rv:138.0) Gecko/20100101 Firefox/138.0" version="27.1.5">
  <diagram name="Page-1" id="8sDxUJ-hrjWiDaLre2E8">
    <mxGraphModel dx="737" dy="583" grid="1" gridSize="10" guides="1" tooltips="1" connect="1" arrows="1" fold="1" page="1" pageScale="1" pageWidth="850" pageHeight="1100" math="0" shadow="0">
      <root>
        <mxCell id="0" />
        <mxCell id="1" parent="0" />
        <mxCell id="pJ1HwKIx0ICpmFqRIkRH-3" value="" style="shape=table;startSize=0;container=1;collapsible=0;childLayout=tableLayout;fontSize=12;fillColor=light-dark(#FFFFFF,#424242);" parent="1" vertex="1">
          <mxGeometry x="30" y="790" width="764" height="40" as="geometry" />
        </mxCell>
        <mxCell id="pJ1HwKIx0ICpmFqRIkRH-4" value="" style="shape=tableRow;horizontal=0;startSize=0;swimlaneHead=0;swimlaneBody=0;strokeColor=inherit;top=0;left=0;bottom=0;right=0;collapsible=0;dropTarget=0;fillColor=none;points=[[0,0.5],[1,0.5]];portConstraint=eastwest;fontSize=16;" parent="pJ1HwKIx0ICpmFqRIkRH-3" vertex="1">
          <mxGeometry width="764" height="40" as="geometry" />
        </mxCell>
        <mxCell id="pJ1HwKIx0ICpmFqRIkRH-5" value="&lt;u&gt;BillID&lt;/u&gt;" style="shape=partialRectangle;html=1;whiteSpace=wrap;connectable=0;strokeColor=inherit;overflow=hidden;fillColor=none;top=0;left=0;bottom=0;right=0;pointerEvents=1;fontSize=12;fontFamily=Times New Roman;" parent="pJ1HwKIx0ICpmFqRIkRH-4" vertex="1">
          <mxGeometry width="64" height="40" as="geometry">
            <mxRectangle width="64" height="40" as="alternateBounds" />
          </mxGeometry>
        </mxCell>
        <mxCell id="pJ1HwKIx0ICpmFqRIkRH-22" value="ProfileID" style="shape=partialRectangle;html=1;whiteSpace=wrap;connectable=0;strokeColor=inherit;overflow=hidden;fillColor=none;top=0;left=0;bottom=0;right=0;pointerEvents=1;fontSize=12;fontFamily=Times New Roman;" parent="pJ1HwKIx0ICpmFqRIkRH-4" vertex="1">
          <mxGeometry x="64" width="95" height="40" as="geometry">
            <mxRectangle width="95" height="40" as="alternateBounds" />
          </mxGeometry>
        </mxCell>
        <mxCell id="pJ1HwKIx0ICpmFqRIkRH-6" value="BillProvider" style="shape=partialRectangle;html=1;whiteSpace=wrap;connectable=0;strokeColor=inherit;overflow=hidden;fillColor=none;top=0;left=0;bottom=0;right=0;pointerEvents=1;fontSize=12;fontFamily=Times New Roman;" parent="pJ1HwKIx0ICpmFqRIkRH-4" vertex="1">
          <mxGeometry x="159" width="101" height="40" as="geometry">
            <mxRectangle width="101" height="40" as="alternateBounds" />
          </mxGeometry>
        </mxCell>
        <mxCell id="pJ1HwKIx0ICpmFqRIkRH-7" value="Description" style="shape=partialRectangle;html=1;whiteSpace=wrap;connectable=0;strokeColor=inherit;overflow=hidden;fillColor=none;top=0;left=0;bottom=0;right=0;pointerEvents=1;fontSize=12;fontFamily=Times New Roman;" parent="pJ1HwKIx0ICpmFqRIkRH-4" vertex="1">
          <mxGeometry x="260" width="97" height="40" as="geometry">
            <mxRectangle width="97" height="40" as="alternateBounds" />
          </mxGeometry>
        </mxCell>
        <mxCell id="pJ1HwKIx0ICpmFqRIkRH-17" value="Amount" style="shape=partialRectangle;html=1;whiteSpace=wrap;connectable=0;strokeColor=inherit;overflow=hidden;fillColor=none;top=0;left=0;bottom=0;right=0;pointerEvents=1;fontSize=12;fontFamily=Times New Roman;" parent="pJ1HwKIx0ICpmFqRIkRH-4" vertex="1">
          <mxGeometry x="357" width="98" height="40" as="geometry">
            <mxRectangle width="98" height="40" as="alternateBounds" />
          </mxGeometry>
        </mxCell>
        <mxCell id="pJ1HwKIx0ICpmFqRIkRH-18" value="DueDate" style="shape=partialRectangle;html=1;whiteSpace=wrap;connectable=0;strokeColor=inherit;overflow=hidden;fillColor=none;top=0;left=0;bottom=0;right=0;pointerEvents=1;fontSize=12;fontFamily=Times New Roman;" parent="pJ1HwKIx0ICpmFqRIkRH-4" vertex="1">
          <mxGeometry x="455" width="103" height="40" as="geometry">
            <mxRectangle width="103" height="40" as="alternateBounds" />
          </mxGeometry>
        </mxCell>
        <mxCell id="pJ1HwKIx0ICpmFqRIkRH-19" value="HasReminder" style="shape=partialRectangle;html=1;whiteSpace=wrap;connectable=0;strokeColor=inherit;overflow=hidden;fillColor=none;top=0;left=0;bottom=0;right=0;pointerEvents=1;fontSize=12;fontFamily=Times New Roman;" parent="pJ1HwKIx0ICpmFqRIkRH-4" vertex="1">
          <mxGeometry x="558" width="103" height="40" as="geometry">
            <mxRectangle width="103" height="40" as="alternateBounds" />
          </mxGeometry>
        </mxCell>
        <mxCell id="pJ1HwKIx0ICpmFqRIkRH-20" value="&lt;font style=&quot;font-size: 12px;&quot; face=&quot;Times New Roman&quot;&gt;IsPaid&lt;/font&gt;" style="shape=partialRectangle;html=1;whiteSpace=wrap;connectable=0;strokeColor=inherit;overflow=hidden;fillColor=none;top=0;left=0;bottom=0;right=0;pointerEvents=1;fontSize=16;" parent="pJ1HwKIx0ICpmFqRIkRH-4" vertex="1">
          <mxGeometry x="661" width="103" height="40" as="geometry">
            <mxRectangle width="103" height="40" as="alternateBounds" />
          </mxGeometry>
        </mxCell>
        <mxCell id="pJ1HwKIx0ICpmFqRIkRH-23" value="" style="shape=table;startSize=0;container=1;collapsible=0;childLayout=tableLayout;fontSize=12;fontFamily=Times New Roman;fillColor=light-dark(#FFFFFF,#424242);" parent="1" vertex="1">
          <mxGeometry x="30" y="580" width="180" height="40" as="geometry" />
        </mxCell>
        <mxCell id="pJ1HwKIx0ICpmFqRIkRH-24" value="" style="shape=tableRow;horizontal=0;startSize=0;swimlaneHead=0;swimlaneBody=0;strokeColor=inherit;top=0;left=0;bottom=0;right=0;collapsible=0;dropTarget=0;fillColor=none;points=[[0,0.5],[1,0.5]];portConstraint=eastwest;fontSize=12;fontFamily=Times New Roman;" parent="pJ1HwKIx0ICpmFqRIkRH-23" vertex="1">
          <mxGeometry width="180" height="40" as="geometry" />
        </mxCell>
        <mxCell id="pJ1HwKIx0ICpmFqRIkRH-25" value="&lt;u&gt;ProfileID&lt;/u&gt;" style="shape=partialRectangle;html=1;whiteSpace=wrap;connectable=0;strokeColor=inherit;overflow=hidden;fillColor=none;top=0;left=0;bottom=0;right=0;pointerEvents=1;fontSize=12;fontFamily=Times New Roman;" parent="pJ1HwKIx0ICpmFqRIkRH-24" vertex="1">
          <mxGeometry width="80" height="40" as="geometry">
            <mxRectangle width="80" height="40" as="alternateBounds" />
          </mxGeometry>
        </mxCell>
        <mxCell id="pJ1HwKIx0ICpmFqRIkRH-26" value="CustomerID" style="shape=partialRectangle;html=1;whiteSpace=wrap;connectable=0;strokeColor=inherit;overflow=hidden;fillColor=none;top=0;left=0;bottom=0;right=0;pointerEvents=1;fontSize=12;fontFamily=Times New Roman;" parent="pJ1HwKIx0ICpmFqRIkRH-24" vertex="1">
          <mxGeometry x="80" width="100" height="40" as="geometry">
            <mxRectangle width="100" height="40" as="alternateBounds" />
          </mxGeometry>
        </mxCell>
        <mxCell id="pJ1HwKIx0ICpmFqRIkRH-33" value="&lt;div align=&quot;left&quot;&gt;BILL&lt;/div&gt;" style="text;html=1;align=left;verticalAlign=middle;resizable=0;points=[];autosize=1;strokeColor=none;fillColor=none;fontSize=16;fontStyle=1;fontFamily=Times New Roman;" parent="1" vertex="1">
          <mxGeometry x="30" y="760" width="60" height="30" as="geometry" />
        </mxCell>
        <mxCell id="pJ1HwKIx0ICpmFqRIkRH-34" value="&lt;div align=&quot;left&quot;&gt;FINANCIAL_PROFILE&lt;/div&gt;" style="text;html=1;align=left;verticalAlign=middle;resizable=0;points=[];autosize=1;strokeColor=none;fillColor=none;fontStyle=1;fontSize=16;fontFamily=Times New Roman;" parent="1" vertex="1">
          <mxGeometry x="30" y="550" width="180" height="30" as="geometry" />
        </mxCell>
        <mxCell id="pJ1HwKIx0ICpmFqRIkRH-35" value="" style="shape=table;startSize=0;container=1;collapsible=0;childLayout=tableLayout;fontSize=12;fillColor=light-dark(#FFFFFF,#424242);" parent="1" vertex="1">
          <mxGeometry x="30" y="40" width="400" height="40" as="geometry" />
        </mxCell>
        <mxCell id="pJ1HwKIx0ICpmFqRIkRH-36" value="" style="shape=tableRow;horizontal=0;startSize=0;swimlaneHead=0;swimlaneBody=0;strokeColor=inherit;top=0;left=0;bottom=0;right=0;collapsible=0;dropTarget=0;fillColor=none;points=[[0,0.5],[1,0.5]];portConstraint=eastwest;fontSize=16;" parent="pJ1HwKIx0ICpmFqRIkRH-35" vertex="1">
          <mxGeometry width="400" height="40" as="geometry" />
        </mxCell>
        <mxCell id="pJ1HwKIx0ICpmFqRIkRH-37" value="&lt;u&gt;&lt;font style=&quot;font-size: 12px;&quot; face=&quot;Times New Roman&quot;&gt;AcctID&lt;/font&gt;&lt;/u&gt;" style="shape=partialRectangle;html=1;whiteSpace=wrap;connectable=0;strokeColor=inherit;overflow=hidden;fillColor=none;top=0;left=0;bottom=0;right=0;pointerEvents=1;fontSize=16;" parent="pJ1HwKIx0ICpmFqRIkRH-36" vertex="1">
          <mxGeometry width="80" height="40" as="geometry">
            <mxRectangle width="80" height="40" as="alternateBounds" />
          </mxGeometry>
        </mxCell>
        <mxCell id="pJ1HwKIx0ICpmFqRIkRH-38" value="&lt;font face=&quot;Times New Roman&quot; style=&quot;font-size: 12px;&quot;&gt;Username&lt;/font&gt;" style="shape=partialRectangle;html=1;whiteSpace=wrap;connectable=0;strokeColor=inherit;overflow=hidden;fillColor=none;top=0;left=0;bottom=0;right=0;pointerEvents=1;fontSize=16;" parent="pJ1HwKIx0ICpmFqRIkRH-36" vertex="1">
          <mxGeometry x="80" width="70" height="40" as="geometry">
            <mxRectangle width="70" height="40" as="alternateBounds" />
          </mxGeometry>
        </mxCell>
        <mxCell id="pJ1HwKIx0ICpmFqRIkRH-39" value="&lt;font face=&quot;Times New Roman&quot; style=&quot;font-size: 12px;&quot;&gt;Password&lt;/font&gt;" style="shape=partialRectangle;html=1;whiteSpace=wrap;connectable=0;strokeColor=inherit;overflow=hidden;fillColor=none;top=0;left=0;bottom=0;right=0;pointerEvents=1;fontSize=16;" parent="pJ1HwKIx0ICpmFqRIkRH-36" vertex="1">
          <mxGeometry x="150" width="103" height="40" as="geometry">
            <mxRectangle width="103" height="40" as="alternateBounds" />
          </mxGeometry>
        </mxCell>
        <mxCell id="pJ1HwKIx0ICpmFqRIkRH-40" value="&lt;font face=&quot;Times New Roman&quot; style=&quot;font-size: 12px;&quot;&gt;AcctCreationDate&lt;/font&gt;" style="shape=partialRectangle;html=1;whiteSpace=wrap;connectable=0;strokeColor=inherit;overflow=hidden;fillColor=none;top=0;left=0;bottom=0;right=0;pointerEvents=1;fontSize=16;" parent="pJ1HwKIx0ICpmFqRIkRH-36" vertex="1">
          <mxGeometry x="253" width="147" height="40" as="geometry">
            <mxRectangle width="147" height="40" as="alternateBounds" />
          </mxGeometry>
        </mxCell>
        <mxCell id="pJ1HwKIx0ICpmFqRIkRH-45" value="" style="shape=table;startSize=0;container=1;collapsible=0;childLayout=tableLayout;fontSize=12;fontFamily=Times New Roman;fillColor=light-dark(#FFFFFF,#424242);" parent="1" vertex="1">
          <mxGeometry x="30" y="900" width="180" height="30" as="geometry" />
        </mxCell>
        <mxCell id="pJ1HwKIx0ICpmFqRIkRH-46" value="" style="shape=tableRow;horizontal=0;startSize=0;swimlaneHead=0;swimlaneBody=0;strokeColor=inherit;top=0;left=0;bottom=0;right=0;collapsible=0;dropTarget=0;fillColor=none;points=[[0,0.5],[1,0.5]];portConstraint=eastwest;fontSize=12;fontFamily=Times New Roman;" parent="pJ1HwKIx0ICpmFqRIkRH-45" vertex="1">
          <mxGeometry width="180" height="30" as="geometry" />
        </mxCell>
        <mxCell id="pJ1HwKIx0ICpmFqRIkRH-47" value="&lt;u&gt;BillID&lt;/u&gt;" style="shape=partialRectangle;html=1;whiteSpace=wrap;connectable=0;strokeColor=inherit;overflow=hidden;fillColor=none;top=0;left=0;bottom=0;right=0;pointerEvents=1;fontSize=12;fontFamily=Times New Roman;" parent="pJ1HwKIx0ICpmFqRIkRH-46" vertex="1">
          <mxGeometry width="72" height="30" as="geometry">
            <mxRectangle width="72" height="30" as="alternateBounds" />
          </mxGeometry>
        </mxCell>
        <mxCell id="pJ1HwKIx0ICpmFqRIkRH-48" value="&lt;u&gt;Category&lt;/u&gt;" style="shape=partialRectangle;html=1;whiteSpace=wrap;connectable=0;strokeColor=inherit;overflow=hidden;fillColor=none;top=0;left=0;bottom=0;right=0;pointerEvents=1;fontSize=12;fontFamily=Times New Roman;" parent="pJ1HwKIx0ICpmFqRIkRH-46" vertex="1">
          <mxGeometry x="72" width="108" height="30" as="geometry">
            <mxRectangle width="108" height="30" as="alternateBounds" />
          </mxGeometry>
        </mxCell>
        <mxCell id="pJ1HwKIx0ICpmFqRIkRH-49" value="&lt;div align=&quot;left&quot;&gt;BILL_CATEGORY&lt;/div&gt;" style="text;html=1;align=left;verticalAlign=middle;resizable=0;points=[];autosize=1;strokeColor=none;fillColor=none;fontSize=16;fontStyle=1;fontFamily=Times New Roman;" parent="1" vertex="1">
          <mxGeometry x="30" y="870" width="150" height="30" as="geometry" />
        </mxCell>
        <mxCell id="pJ1HwKIx0ICpmFqRIkRH-50" value="&lt;div align=&quot;left&quot;&gt;&lt;font face=&quot;Times New Roman&quot;&gt;ACCOUNT&lt;/font&gt;&lt;/div&gt;" style="text;html=1;align=left;verticalAlign=middle;resizable=0;points=[];autosize=1;strokeColor=none;fillColor=none;fontStyle=1;fontSize=16;" parent="1" vertex="1">
          <mxGeometry x="30" y="10" width="100" height="30" as="geometry" />
        </mxCell>
        <mxCell id="pJ1HwKIx0ICpmFqRIkRH-51" value="" style="shape=table;startSize=0;container=1;collapsible=0;childLayout=tableLayout;fontSize=12;fillColor=light-dark(#FFFFFF,#424242);" parent="1" vertex="1">
          <mxGeometry x="30" y="170" width="530" height="40" as="geometry" />
        </mxCell>
        <mxCell id="pJ1HwKIx0ICpmFqRIkRH-52" value="" style="shape=tableRow;horizontal=0;startSize=0;swimlaneHead=0;swimlaneBody=0;strokeColor=inherit;top=0;left=0;bottom=0;right=0;collapsible=0;dropTarget=0;fillColor=none;points=[[0,0.5],[1,0.5]];portConstraint=eastwest;fontSize=16;" parent="pJ1HwKIx0ICpmFqRIkRH-51" vertex="1">
          <mxGeometry width="530" height="40" as="geometry" />
        </mxCell>
        <mxCell id="pJ1HwKIx0ICpmFqRIkRH-53" value="&lt;font style=&quot;font-size: 12px;&quot;&gt;&lt;u&gt;AdminID&lt;/u&gt;&lt;/font&gt;" style="shape=partialRectangle;html=1;whiteSpace=wrap;connectable=0;strokeColor=inherit;overflow=hidden;fillColor=none;top=0;left=0;bottom=0;right=0;pointerEvents=1;fontSize=16;fontFamily=Times New Roman;" parent="pJ1HwKIx0ICpmFqRIkRH-52" vertex="1">
          <mxGeometry width="90" height="40" as="geometry">
            <mxRectangle width="90" height="40" as="alternateBounds" />
          </mxGeometry>
        </mxCell>
        <mxCell id="pJ1HwKIx0ICpmFqRIkRH-61" value="&lt;font style=&quot;font-size: 12px;&quot;&gt;AcctID&lt;/font&gt;" style="shape=partialRectangle;html=1;whiteSpace=wrap;connectable=0;strokeColor=inherit;overflow=hidden;fillColor=none;top=0;left=0;bottom=0;right=0;pointerEvents=1;fontSize=16;fontFamily=Times New Roman;" parent="pJ1HwKIx0ICpmFqRIkRH-52" vertex="1">
          <mxGeometry x="90" width="70" height="40" as="geometry">
            <mxRectangle width="70" height="40" as="alternateBounds" />
          </mxGeometry>
        </mxCell>
        <mxCell id="pJ1HwKIx0ICpmFqRIkRH-54" value="&lt;font style=&quot;font-size: 12px;&quot;&gt;FName&lt;/font&gt;" style="shape=partialRectangle;html=1;whiteSpace=wrap;connectable=0;strokeColor=inherit;overflow=hidden;fillColor=none;top=0;left=0;bottom=0;right=0;pointerEvents=1;fontSize=16;fontFamily=Times New Roman;" parent="pJ1HwKIx0ICpmFqRIkRH-52" vertex="1">
          <mxGeometry x="160" width="60" height="40" as="geometry">
            <mxRectangle width="60" height="40" as="alternateBounds" />
          </mxGeometry>
        </mxCell>
        <mxCell id="pJ1HwKIx0ICpmFqRIkRH-55" value="&lt;font face=&quot;Times New Roman&quot;&gt;LName&lt;/font&gt;" style="shape=partialRectangle;html=1;whiteSpace=wrap;connectable=0;strokeColor=inherit;overflow=hidden;fillColor=none;top=0;left=0;bottom=0;right=0;pointerEvents=1;fontSize=12;" parent="pJ1HwKIx0ICpmFqRIkRH-52" vertex="1">
          <mxGeometry x="220" width="100" height="40" as="geometry">
            <mxRectangle width="100" height="40" as="alternateBounds" />
          </mxGeometry>
        </mxCell>
        <mxCell id="pJ1HwKIx0ICpmFqRIkRH-56" value="Email" style="shape=partialRectangle;html=1;whiteSpace=wrap;connectable=0;strokeColor=inherit;overflow=hidden;fillColor=none;top=0;left=0;bottom=0;right=0;pointerEvents=1;fontSize=12;fontFamily=Times New Roman;" parent="pJ1HwKIx0ICpmFqRIkRH-52" vertex="1">
          <mxGeometry x="320" width="110" height="40" as="geometry">
            <mxRectangle width="110" height="40" as="alternateBounds" />
          </mxGeometry>
        </mxCell>
        <mxCell id="pJ1HwKIx0ICpmFqRIkRH-59" value="Phone" style="shape=partialRectangle;html=1;whiteSpace=wrap;connectable=0;strokeColor=inherit;overflow=hidden;fillColor=none;top=0;left=0;bottom=0;right=0;pointerEvents=1;fontSize=12;fontFamily=Times New Roman;" parent="pJ1HwKIx0ICpmFqRIkRH-52" vertex="1">
          <mxGeometry x="430" width="100" height="40" as="geometry">
            <mxRectangle width="100" height="40" as="alternateBounds" />
          </mxGeometry>
        </mxCell>
        <mxCell id="pJ1HwKIx0ICpmFqRIkRH-57" value="&lt;div align=&quot;left&quot;&gt;&lt;font&gt;ADMIN&lt;/font&gt;&lt;/div&gt;" style="text;html=1;align=left;verticalAlign=middle;resizable=0;points=[];autosize=1;strokeColor=none;fillColor=none;fontStyle=1;fontSize=16;fontFamily=Times New Roman;" parent="1" vertex="1">
          <mxGeometry x="30" y="140" width="80" height="30" as="geometry" />
        </mxCell>
        <mxCell id="pJ1HwKIx0ICpmFqRIkRH-62" value="" style="shape=table;startSize=0;container=1;collapsible=0;childLayout=tableLayout;fontSize=12;fontFamily=Times New Roman;fillColor=light-dark(#FFFFFF,#424242);" parent="1" vertex="1">
          <mxGeometry x="30" y="480" width="690" height="40" as="geometry" />
        </mxCell>
        <mxCell id="pJ1HwKIx0ICpmFqRIkRH-63" value="" style="shape=tableRow;horizontal=0;startSize=0;swimlaneHead=0;swimlaneBody=0;strokeColor=inherit;top=0;left=0;bottom=0;right=0;collapsible=0;dropTarget=0;fillColor=none;points=[[0,0.5],[1,0.5]];portConstraint=eastwest;fontSize=16;" parent="pJ1HwKIx0ICpmFqRIkRH-62" vertex="1">
          <mxGeometry width="690" height="40" as="geometry" />
        </mxCell>
        <mxCell id="pJ1HwKIx0ICpmFqRIkRH-64" value="&lt;font style=&quot;font-size: 13px;&quot;&gt;&lt;u&gt;CustomerID&lt;/u&gt;&lt;/font&gt;" style="shape=partialRectangle;html=1;whiteSpace=wrap;connectable=0;strokeColor=inherit;overflow=hidden;fillColor=none;top=0;left=0;bottom=0;right=0;pointerEvents=1;fontSize=16;fontFamily=Times New Roman;" parent="pJ1HwKIx0ICpmFqRIkRH-63" vertex="1">
          <mxGeometry width="100" height="40" as="geometry">
            <mxRectangle width="100" height="40" as="alternateBounds" />
          </mxGeometry>
        </mxCell>
        <mxCell id="pJ1HwKIx0ICpmFqRIkRH-65" value="&lt;font style=&quot;font-size: 12px;&quot;&gt;AcctID&lt;/font&gt;" style="shape=partialRectangle;html=1;whiteSpace=wrap;connectable=0;strokeColor=inherit;overflow=hidden;fillColor=none;top=0;left=0;bottom=0;right=0;pointerEvents=1;fontSize=16;fontFamily=Times New Roman;" parent="pJ1HwKIx0ICpmFqRIkRH-63" vertex="1">
          <mxGeometry x="100" width="70" height="40" as="geometry">
            <mxRectangle width="70" height="40" as="alternateBounds" />
          </mxGeometry>
        </mxCell>
        <mxCell id="pJ1HwKIx0ICpmFqRIkRH-66" value="&lt;font style=&quot;font-size: 12px;&quot;&gt;FName&lt;/font&gt;" style="shape=partialRectangle;html=1;whiteSpace=wrap;connectable=0;strokeColor=inherit;overflow=hidden;fillColor=none;top=0;left=0;bottom=0;right=0;pointerEvents=1;fontSize=16;fontFamily=Times New Roman;" parent="pJ1HwKIx0ICpmFqRIkRH-63" vertex="1">
          <mxGeometry x="170" width="82" height="40" as="geometry">
            <mxRectangle width="82" height="40" as="alternateBounds" />
          </mxGeometry>
        </mxCell>
        <mxCell id="pJ1HwKIx0ICpmFqRIkRH-67" value="&lt;font style=&quot;font-size: 12px;&quot;&gt;LName&lt;/font&gt;" style="shape=partialRectangle;html=1;whiteSpace=wrap;connectable=0;strokeColor=inherit;overflow=hidden;fillColor=none;top=0;left=0;bottom=0;right=0;pointerEvents=1;fontSize=16;" parent="pJ1HwKIx0ICpmFqRIkRH-63" vertex="1">
          <mxGeometry x="252" width="58" height="40" as="geometry">
            <mxRectangle width="58" height="40" as="alternateBounds" />
          </mxGeometry>
        </mxCell>
        <mxCell id="pJ1HwKIx0ICpmFqRIkRH-68" value="&lt;font face=&quot;Times New Roman&quot; style=&quot;font-size: 12px;&quot;&gt;Email&lt;/font&gt;" style="shape=partialRectangle;html=1;whiteSpace=wrap;connectable=0;strokeColor=inherit;overflow=hidden;fillColor=none;top=0;left=0;bottom=0;right=0;pointerEvents=1;fontSize=16;" parent="pJ1HwKIx0ICpmFqRIkRH-63" vertex="1">
          <mxGeometry x="310" width="90" height="40" as="geometry">
            <mxRectangle width="90" height="40" as="alternateBounds" />
          </mxGeometry>
        </mxCell>
        <mxCell id="pJ1HwKIx0ICpmFqRIkRH-69" value="Phone" style="shape=partialRectangle;html=1;whiteSpace=wrap;connectable=0;strokeColor=inherit;overflow=hidden;fillColor=none;top=0;left=0;bottom=0;right=0;pointerEvents=1;fontSize=12;fontFamily=Times New Roman;" parent="pJ1HwKIx0ICpmFqRIkRH-63" vertex="1">
          <mxGeometry x="400" width="70" height="40" as="geometry">
            <mxRectangle width="70" height="40" as="alternateBounds" />
          </mxGeometry>
        </mxCell>
        <mxCell id="pJ1HwKIx0ICpmFqRIkRH-71" value="BDate" style="shape=partialRectangle;html=1;whiteSpace=wrap;connectable=0;strokeColor=inherit;overflow=hidden;fillColor=none;top=0;left=0;bottom=0;right=0;pointerEvents=1;fontSize=12;fontFamily=Times New Roman;" parent="pJ1HwKIx0ICpmFqRIkRH-63" vertex="1">
          <mxGeometry x="470" width="60" height="40" as="geometry">
            <mxRectangle width="60" height="40" as="alternateBounds" />
          </mxGeometry>
        </mxCell>
        <mxCell id="pJ1HwKIx0ICpmFqRIkRH-72" value="Addr" style="shape=partialRectangle;html=1;whiteSpace=wrap;connectable=0;strokeColor=inherit;overflow=hidden;fillColor=none;top=0;left=0;bottom=0;right=0;pointerEvents=1;fontSize=12;fontFamily=Times New Roman;" parent="pJ1HwKIx0ICpmFqRIkRH-63" vertex="1">
          <mxGeometry x="530" width="60" height="40" as="geometry">
            <mxRectangle width="60" height="40" as="alternateBounds" />
          </mxGeometry>
        </mxCell>
        <mxCell id="pJ1HwKIx0ICpmFqRIkRH-73" value="AdvisorID" style="shape=partialRectangle;html=1;whiteSpace=wrap;connectable=0;strokeColor=inherit;overflow=hidden;fillColor=none;top=0;left=0;bottom=0;right=0;pointerEvents=1;fontSize=12;fontFamily=Times New Roman;" parent="pJ1HwKIx0ICpmFqRIkRH-63" vertex="1">
          <mxGeometry x="590" width="100" height="40" as="geometry">
            <mxRectangle width="100" height="40" as="alternateBounds" />
          </mxGeometry>
        </mxCell>
        <mxCell id="pJ1HwKIx0ICpmFqRIkRH-70" value="&lt;div align=&quot;left&quot;&gt;&lt;font&gt;CUSTOMER&lt;/font&gt;&lt;/div&gt;" style="text;html=1;align=left;verticalAlign=middle;resizable=0;points=[];autosize=1;strokeColor=none;fillColor=none;fontStyle=1;fontSize=16;fontFamily=Times New Roman;" parent="1" vertex="1">
          <mxGeometry x="30" y="450" width="110" height="30" as="geometry" />
        </mxCell>
        <mxCell id="pJ1HwKIx0ICpmFqRIkRH-74" value="" style="shape=table;startSize=0;container=1;collapsible=0;childLayout=tableLayout;fontSize=12;fillColor=light-dark(#FFFFFF,#424242);" parent="1" vertex="1">
          <mxGeometry x="30" y="370" width="458" height="40" as="geometry" />
        </mxCell>
        <mxCell id="pJ1HwKIx0ICpmFqRIkRH-75" value="" style="shape=tableRow;horizontal=0;startSize=0;swimlaneHead=0;swimlaneBody=0;strokeColor=inherit;top=0;left=0;bottom=0;right=0;collapsible=0;dropTarget=0;fillColor=none;points=[[0,0.5],[1,0.5]];portConstraint=eastwest;fontSize=16;" parent="pJ1HwKIx0ICpmFqRIkRH-74" vertex="1">
          <mxGeometry width="458" height="40" as="geometry" />
        </mxCell>
        <mxCell id="pJ1HwKIx0ICpmFqRIkRH-76" value="&lt;font style=&quot;font-size: 12px;&quot;&gt;&lt;u&gt;AdvisorID&lt;/u&gt;&lt;/font&gt;" style="shape=partialRectangle;html=1;whiteSpace=wrap;connectable=0;strokeColor=inherit;overflow=hidden;fillColor=none;top=0;left=0;bottom=0;right=0;pointerEvents=1;fontSize=16;fontFamily=Times New Roman;" parent="pJ1HwKIx0ICpmFqRIkRH-75" vertex="1">
          <mxGeometry width="86" height="40" as="geometry">
            <mxRectangle width="86" height="40" as="alternateBounds" />
          </mxGeometry>
        </mxCell>
        <mxCell id="pJ1HwKIx0ICpmFqRIkRH-77" value="&lt;font style=&quot;font-size: 12px;&quot;&gt;AcctID&lt;/font&gt;" style="shape=partialRectangle;html=1;whiteSpace=wrap;connectable=0;strokeColor=inherit;overflow=hidden;fillColor=none;top=0;left=0;bottom=0;right=0;pointerEvents=1;fontSize=16;fontFamily=Times New Roman;" parent="pJ1HwKIx0ICpmFqRIkRH-75" vertex="1">
          <mxGeometry x="86" width="52" height="40" as="geometry">
            <mxRectangle width="52" height="40" as="alternateBounds" />
          </mxGeometry>
        </mxCell>
        <mxCell id="pJ1HwKIx0ICpmFqRIkRH-78" value="&lt;font style=&quot;font-size: 12px;&quot;&gt;FName&lt;/font&gt;" style="shape=partialRectangle;html=1;whiteSpace=wrap;connectable=0;strokeColor=inherit;overflow=hidden;fillColor=none;top=0;left=0;bottom=0;right=0;pointerEvents=1;fontSize=16;fontFamily=Times New Roman;" parent="pJ1HwKIx0ICpmFqRIkRH-75" vertex="1">
          <mxGeometry x="138" width="72" height="40" as="geometry">
            <mxRectangle width="72" height="40" as="alternateBounds" />
          </mxGeometry>
        </mxCell>
        <mxCell id="pJ1HwKIx0ICpmFqRIkRH-79" value="&lt;font style=&quot;font-size: 12px;&quot;&gt;LName&lt;/font&gt;" style="shape=partialRectangle;html=1;whiteSpace=wrap;connectable=0;strokeColor=inherit;overflow=hidden;fillColor=none;top=0;left=0;bottom=0;right=0;pointerEvents=1;fontSize=16;fontFamily=Times New Roman;" parent="pJ1HwKIx0ICpmFqRIkRH-75" vertex="1">
          <mxGeometry x="210" width="66" height="40" as="geometry">
            <mxRectangle width="66" height="40" as="alternateBounds" />
          </mxGeometry>
        </mxCell>
        <mxCell id="pJ1HwKIx0ICpmFqRIkRH-80" value="&lt;font face=&quot;Times New Roman&quot; style=&quot;font-size: 12px;&quot;&gt;Email&lt;/font&gt;" style="shape=partialRectangle;html=1;whiteSpace=wrap;connectable=0;strokeColor=inherit;overflow=hidden;fillColor=none;top=0;left=0;bottom=0;right=0;pointerEvents=1;fontSize=16;" parent="pJ1HwKIx0ICpmFqRIkRH-75" vertex="1">
          <mxGeometry x="276" width="78" height="40" as="geometry">
            <mxRectangle width="78" height="40" as="alternateBounds" />
          </mxGeometry>
        </mxCell>
        <mxCell id="pJ1HwKIx0ICpmFqRIkRH-81" value="&lt;font style=&quot;font-size: 12px;&quot; face=&quot;Times New Roman&quot;&gt;Phone&lt;/font&gt;" style="shape=partialRectangle;html=1;whiteSpace=wrap;connectable=0;strokeColor=inherit;overflow=hidden;fillColor=none;top=0;left=0;bottom=0;right=0;pointerEvents=1;fontSize=16;" parent="pJ1HwKIx0ICpmFqRIkRH-75" vertex="1">
          <mxGeometry x="354" width="104" height="40" as="geometry">
            <mxRectangle width="104" height="40" as="alternateBounds" />
          </mxGeometry>
        </mxCell>
        <mxCell id="pJ1HwKIx0ICpmFqRIkRH-85" value="&lt;div align=&quot;left&quot;&gt;FINANCIAL_ADVISOR&lt;/div&gt;" style="text;html=1;align=left;verticalAlign=middle;resizable=0;points=[];autosize=1;strokeColor=none;fillColor=none;fontStyle=1;fontSize=16;fontFamily=Times New Roman;" parent="1" vertex="1">
          <mxGeometry x="30" y="340" width="190" height="30" as="geometry" />
        </mxCell>
        <mxCell id="pJ1HwKIx0ICpmFqRIkRH-108" style="edgeStyle=orthogonalEdgeStyle;rounded=0;orthogonalLoop=1;jettySize=auto;html=1;exitX=0.75;exitY=1;exitDx=0;exitDy=0;" parent="1" edge="1">
          <mxGeometry relative="1" as="geometry">
            <mxPoint x="60" y="80" as="targetPoint" />
            <mxPoint x="170" y="300" as="sourcePoint" />
            <Array as="points">
              <mxPoint x="170" y="330" />
              <mxPoint x="760" y="330" />
              <mxPoint x="760" y="120" />
              <mxPoint x="60" y="120" />
            </Array>
          </mxGeometry>
        </mxCell>
        <mxCell id="pJ1HwKIx0ICpmFqRIkRH-86" value="" style="shape=table;startSize=0;container=1;collapsible=0;childLayout=tableLayout;fontSize=12;fontFamily=Times New Roman;fillColor=light-dark(#FFFFFF,#424242);" parent="1" vertex="1">
          <mxGeometry x="30" y="270" width="180" height="40" as="geometry" />
        </mxCell>
        <mxCell id="pJ1HwKIx0ICpmFqRIkRH-87" value="" style="shape=tableRow;horizontal=0;startSize=0;swimlaneHead=0;swimlaneBody=0;strokeColor=inherit;top=0;left=0;bottom=0;right=0;collapsible=0;dropTarget=0;fillColor=none;points=[[0,0.5],[1,0.5]];portConstraint=eastwest;fontSize=16;fontFamily=Times New Roman;" parent="pJ1HwKIx0ICpmFqRIkRH-86" vertex="1">
          <mxGeometry width="180" height="40" as="geometry" />
        </mxCell>
        <mxCell id="pJ1HwKIx0ICpmFqRIkRH-88" value="&lt;font style=&quot;font-size: 12px;&quot;&gt;&lt;u&gt;AdminID&lt;/u&gt;&lt;/font&gt;" style="shape=partialRectangle;html=1;whiteSpace=wrap;connectable=0;strokeColor=inherit;overflow=hidden;fillColor=none;top=0;left=0;bottom=0;right=0;pointerEvents=1;fontSize=16;fontFamily=Times New Roman;" parent="pJ1HwKIx0ICpmFqRIkRH-87" vertex="1">
          <mxGeometry width="80" height="40" as="geometry">
            <mxRectangle width="80" height="40" as="alternateBounds" />
          </mxGeometry>
        </mxCell>
        <mxCell id="pJ1HwKIx0ICpmFqRIkRH-89" value="&lt;u&gt;&lt;font style=&quot;font-size: 12px;&quot;&gt;AcctID&lt;/font&gt;&lt;/u&gt;" style="shape=partialRectangle;html=1;whiteSpace=wrap;connectable=0;strokeColor=inherit;overflow=hidden;fillColor=none;top=0;left=0;bottom=0;right=0;pointerEvents=1;fontSize=16;fontFamily=Times New Roman;" parent="pJ1HwKIx0ICpmFqRIkRH-87" vertex="1">
          <mxGeometry x="80" width="100" height="40" as="geometry">
            <mxRectangle width="100" height="40" as="alternateBounds" />
          </mxGeometry>
        </mxCell>
        <mxCell id="pJ1HwKIx0ICpmFqRIkRH-90" value="&lt;div align=&quot;left&quot;&gt;ADMIN_MANAGES&lt;/div&gt;" style="text;html=1;align=left;verticalAlign=middle;resizable=0;points=[];autosize=1;strokeColor=none;fillColor=none;fontSize=17;fontStyle=1;fontFamily=Times New Roman;" parent="1" vertex="1">
          <mxGeometry x="30" y="240" width="170" height="30" as="geometry" />
        </mxCell>
        <mxCell id="pJ1HwKIx0ICpmFqRIkRH-105" style="edgeStyle=orthogonalEdgeStyle;rounded=0;orthogonalLoop=1;jettySize=auto;html=1;exitX=0.197;exitY=1.016;exitDx=0;exitDy=0;entryX=0.125;entryY=1;entryDx=0;entryDy=0;entryPerimeter=0;exitPerimeter=0;" parent="1" source="pJ1HwKIx0ICpmFqRIkRH-63" edge="1">
          <mxGeometry relative="1" as="geometry">
            <mxPoint x="179.55" y="530.1999999999999" as="sourcePoint" />
            <mxPoint x="100" y="79.99999999999997" as="targetPoint" />
            <Array as="points">
              <mxPoint x="166" y="530" />
              <mxPoint x="780" y="530" />
              <mxPoint x="780" y="100" />
              <mxPoint x="100" y="100" />
            </Array>
          </mxGeometry>
        </mxCell>
        <mxCell id="pJ1HwKIx0ICpmFqRIkRH-106" style="edgeStyle=orthogonalEdgeStyle;rounded=0;orthogonalLoop=1;jettySize=auto;html=1;exitX=0.916;exitY=0.023;exitDx=0;exitDy=0;entryX=0.089;entryY=0.988;entryDx=0;entryDy=0;entryPerimeter=0;exitPerimeter=0;" parent="1" source="pJ1HwKIx0ICpmFqRIkRH-63" target="pJ1HwKIx0ICpmFqRIkRH-75" edge="1">
          <mxGeometry relative="1" as="geometry">
            <Array as="points">
              <mxPoint x="662" y="440" />
              <mxPoint x="71" y="440" />
            </Array>
          </mxGeometry>
        </mxCell>
        <mxCell id="pJ1HwKIx0ICpmFqRIkRH-107" style="edgeStyle=orthogonalEdgeStyle;rounded=0;orthogonalLoop=1;jettySize=auto;html=1;exitX=0.194;exitY=1.067;exitDx=0;exitDy=0;entryX=0.083;entryY=1.033;entryDx=0;entryDy=0;entryPerimeter=0;exitPerimeter=0;" parent="1" source="pJ1HwKIx0ICpmFqRIkRH-86" target="pJ1HwKIx0ICpmFqRIkRH-51" edge="1">
          <mxGeometry relative="1" as="geometry">
            <Array as="points">
              <mxPoint x="65" y="320" />
              <mxPoint x="230" y="320" />
              <mxPoint x="230" y="230" />
              <mxPoint x="74" y="230" />
            </Array>
          </mxGeometry>
        </mxCell>
        <mxCell id="pJ1HwKIx0ICpmFqRIkRH-110" style="edgeStyle=orthogonalEdgeStyle;rounded=0;orthogonalLoop=1;jettySize=auto;html=1;" parent="1" edge="1">
          <mxGeometry relative="1" as="geometry">
            <mxPoint x="40" y="80" as="targetPoint" />
            <mxPoint x="158" y="170" as="sourcePoint" />
            <Array as="points">
              <mxPoint x="158" y="130" />
              <mxPoint x="40" y="130" />
            </Array>
          </mxGeometry>
        </mxCell>
        <mxCell id="pJ1HwKIx0ICpmFqRIkRH-111" style="edgeStyle=orthogonalEdgeStyle;rounded=0;orthogonalLoop=1;jettySize=auto;html=1;exitX=0.24;exitY=0.987;exitDx=0;exitDy=0;entryX=0.125;entryY=1;entryDx=0;entryDy=0;entryPerimeter=0;exitPerimeter=0;" parent="1" source="pJ1HwKIx0ICpmFqRIkRH-75" target="pJ1HwKIx0ICpmFqRIkRH-36" edge="1">
          <mxGeometry relative="1" as="geometry">
            <Array as="points">
              <mxPoint x="140" y="420" />
              <mxPoint x="770" y="420" />
              <mxPoint x="770" y="110" />
              <mxPoint x="80" y="110" />
            </Array>
          </mxGeometry>
        </mxCell>
        <mxCell id="pJ1HwKIx0ICpmFqRIkRH-113" style="edgeStyle=orthogonalEdgeStyle;rounded=0;orthogonalLoop=1;jettySize=auto;html=1;exitX=0.727;exitY=1.04;exitDx=0;exitDy=0;exitPerimeter=0;entryX=0.073;entryY=1.023;entryDx=0;entryDy=0;entryPerimeter=0;" parent="1" source="pJ1HwKIx0ICpmFqRIkRH-24" target="pJ1HwKIx0ICpmFqRIkRH-63" edge="1">
          <mxGeometry relative="1" as="geometry">
            <mxPoint x="80" y="540" as="targetPoint" />
            <mxPoint x="160.86000000000013" y="643.04" as="sourcePoint" />
            <Array as="points">
              <mxPoint x="161" y="630" />
              <mxPoint x="280" y="630" />
              <mxPoint x="280" y="540" />
              <mxPoint x="80" y="540" />
            </Array>
          </mxGeometry>
        </mxCell>
        <mxCell id="pJ1HwKIx0ICpmFqRIkRH-114" style="edgeStyle=orthogonalEdgeStyle;rounded=0;orthogonalLoop=1;jettySize=auto;html=1;exitX=0.14;exitY=1.011;exitDx=0;exitDy=0;entryX=0.224;entryY=1.063;entryDx=0;entryDy=0;entryPerimeter=0;exitPerimeter=0;" parent="1" source="pJ1HwKIx0ICpmFqRIkRH-4" target="pJ1HwKIx0ICpmFqRIkRH-24" edge="1">
          <mxGeometry relative="1" as="geometry">
            <mxPoint x="70" y="660" as="targetPoint" />
            <Array as="points">
              <mxPoint x="137" y="840" />
              <mxPoint x="814" y="840" />
              <mxPoint x="814" y="640" />
              <mxPoint x="70" y="640" />
            </Array>
          </mxGeometry>
        </mxCell>
        <mxCell id="pJ1HwKIx0ICpmFqRIkRH-115" style="edgeStyle=orthogonalEdgeStyle;rounded=0;orthogonalLoop=1;jettySize=auto;html=1;exitX=0.177;exitY=1.11;exitDx=0;exitDy=0;entryX=0.048;entryY=0.992;entryDx=0;entryDy=0;entryPerimeter=0;exitPerimeter=0;" parent="1" source="pJ1HwKIx0ICpmFqRIkRH-46" target="pJ1HwKIx0ICpmFqRIkRH-4" edge="1">
          <mxGeometry relative="1" as="geometry">
            <mxPoint x="66.67200000000014" y="859.7800000000001" as="targetPoint" />
            <mxPoint x="61.72000000000003" y="970.0300000000001" as="sourcePoint" />
            <Array as="points">
              <mxPoint x="62" y="940" />
              <mxPoint x="250" y="940" />
              <mxPoint x="250" y="850" />
              <mxPoint x="67" y="850" />
            </Array>
          </mxGeometry>
        </mxCell>
        <mxCell id="pJ1HwKIx0ICpmFqRIkRH-116" value="" style="shape=table;startSize=0;container=1;collapsible=0;childLayout=tableLayout;fontSize=12;fontFamily=Times New Roman;fillColor=light-dark(#FFFFFF,#424242);" parent="1" vertex="1">
          <mxGeometry x="30" y="690" width="180" height="40" as="geometry" />
        </mxCell>
        <mxCell id="pJ1HwKIx0ICpmFqRIkRH-117" value="" style="shape=tableRow;horizontal=0;startSize=0;swimlaneHead=0;swimlaneBody=0;strokeColor=inherit;top=0;left=0;bottom=0;right=0;collapsible=0;dropTarget=0;fillColor=none;points=[[0,0.5],[1,0.5]];portConstraint=eastwest;fontSize=12;fontFamily=Times New Roman;" parent="pJ1HwKIx0ICpmFqRIkRH-116" vertex="1">
          <mxGeometry width="180" height="40" as="geometry" />
        </mxCell>
        <mxCell id="pJ1HwKIx0ICpmFqRIkRH-118" value="&lt;u&gt;AdvisorID&lt;/u&gt;" style="shape=partialRectangle;html=1;whiteSpace=wrap;connectable=0;strokeColor=inherit;overflow=hidden;fillColor=none;top=0;left=0;bottom=0;right=0;pointerEvents=1;fontSize=12;fontFamily=Times New Roman;" parent="pJ1HwKIx0ICpmFqRIkRH-117" vertex="1">
          <mxGeometry width="80" height="40" as="geometry">
            <mxRectangle width="80" height="40" as="alternateBounds" />
          </mxGeometry>
        </mxCell>
        <mxCell id="pJ1HwKIx0ICpmFqRIkRH-119" value="&lt;u&gt;ProfileID&lt;/u&gt;" style="shape=partialRectangle;html=1;whiteSpace=wrap;connectable=0;strokeColor=inherit;overflow=hidden;fillColor=none;top=0;left=0;bottom=0;right=0;pointerEvents=1;fontSize=12;fontFamily=Times New Roman;" parent="pJ1HwKIx0ICpmFqRIkRH-117" vertex="1">
          <mxGeometry x="80" width="100" height="40" as="geometry">
            <mxRectangle width="100" height="40" as="alternateBounds" />
          </mxGeometry>
        </mxCell>
        <mxCell id="pJ1HwKIx0ICpmFqRIkRH-120" value="ADVISOR_REVIEWS" style="text;html=1;align=left;verticalAlign=middle;resizable=0;points=[];autosize=1;strokeColor=none;fillColor=none;fontSize=16;fontStyle=1;fontFamily=Times New Roman;" parent="1" vertex="1">
          <mxGeometry x="30" y="660" width="170" height="30" as="geometry" />
        </mxCell>
        <mxCell id="pJ1HwKIx0ICpmFqRIkRH-121" style="edgeStyle=orthogonalEdgeStyle;rounded=0;orthogonalLoop=1;jettySize=auto;html=1;exitX=0.732;exitY=1.035;exitDx=0;exitDy=0;entryX=0.119;entryY=1.011;entryDx=0;entryDy=0;entryPerimeter=0;exitPerimeter=0;" parent="1" source="pJ1HwKIx0ICpmFqRIkRH-117" target="pJ1HwKIx0ICpmFqRIkRH-24" edge="1">
          <mxGeometry relative="1" as="geometry">
            <mxPoint x="50" y="650" as="targetPoint" />
            <Array as="points">
              <mxPoint x="162" y="740" />
              <mxPoint x="230" y="740" />
              <mxPoint x="230" y="650" />
              <mxPoint x="51" y="650" />
            </Array>
          </mxGeometry>
        </mxCell>
        <mxCell id="pJ1HwKIx0ICpmFqRIkRH-122" style="edgeStyle=orthogonalEdgeStyle;rounded=0;orthogonalLoop=1;jettySize=auto;html=1;exitX=0.25;exitY=1;exitDx=0;exitDy=0;entryX=0.148;entryY=1.011;entryDx=0;entryDy=0;entryPerimeter=0;" parent="1" source="pJ1HwKIx0ICpmFqRIkRH-116" target="pJ1HwKIx0ICpmFqRIkRH-75" edge="1">
          <mxGeometry relative="1" as="geometry">
            <mxPoint x="60" y="430" as="targetPoint" />
            <Array as="points">
              <mxPoint x="75" y="750" />
              <mxPoint x="770" y="750" />
              <mxPoint x="770" y="430" />
              <mxPoint x="98" y="430" />
            </Array>
          </mxGeometry>
        </mxCell>
      </root>
    </mxGraphModel>
  </diagram>
</mxfile>
